:SAMPLES-PER-SECOND 30
:FULLY-SPECIFIED
:DEGREES
329
root  33.8939 34.1832 16.3358 -172.265 0.23143 -179.262
LeftUpLeg  -18.5097 5.56937 8.36985
LeftLeg  9.91242 0.775854 0.0835571
LeftFoot  9.69803 -0.00998474 0.117688
LeftToes  -28.821 2.48695e-006 -1.03773e-007
Spine  3.49612 1.13859 2.73489
Spine1  6.72115 2.41685 5.08316
RightShoulder  0.133985 6.31062 6.29377
RightArm  -25.0737 -0.755579 67.5168
RightForeArm  28.1294 18.4717 3.37139
RightHand  0.284024 -5.22791 -5.83785
LeftShoulder1  0.0326625 0.409686 -7.6456
LeftArm  -0.757456 -1.0687 -81.4387
LeftForeArm  29.4428 -34.9286 -7.06856
LeftHand  0.0350583 0.953054 3.81548
HEad  -2.68256 18.8128 -1.37897
RightUpLeg  -12.2917 -15.4166 4.75185
RightLeg  10.2706 -0.968626 -0.110445
RightFoot  -0.375465 -0.00358168 0.0250456
RightToes  -17.0459 -0.0650748 -0.152657
330
root  33.7526 34.1676 16.0875 -171.911 1.04318 -178.992
LeftUpLeg  -19.0446 6.87288 8.0137
LeftLeg  7.47551 -1.3071 -0.0875274
LeftFoot  12.1253 0.0305742 -0.287875
LeftToes  -29.9959 2.48695e-006 -1.03773e-007
Spine  3.34437 1.08801 2.86569
Spine1  6.44501 2.31635 5.34158
RightShoulder  0.142753 6.67494 6.65365
RightArm  -26.8498 -2.97657 67.3495
RightForeArm  29.8778 16.9809 3.08078
RightHand  0.288583 -5.26793 -5.88946
LeftShoulder1  0.0322536 0.324945 -7.69238
LeftArm  -1.05932 -0.174707 -81.1977
LeftForeArm  29.4719 -33.343 -6.65622
LeftHand  0.0310922 0.910714 3.51379
HEad  -3.01668 19.6127 -1.42548
RightUpLeg  -12.1572 -14.5005 4.68252
RightLeg  10.1438 -1.07943 -0.1208
RightFoot  -0.494126 -0.00430491 0.0254042
RightToes  -17.693 -0.0689748 -0.158019
331
root  33.5895 34.1499 15.8258 -171.759 2.10721 -178.744
LeftUpLeg  -19.3865 7.25998 7.88312
LeftLeg  7.9553 -3.42489 -0.256689
LeftFoot  12.7747 0.0867061 -0.774542
LeftToes  -29.1764 2.48695e-006 -1.03773e-007
Spine  3.22986 1.0698 2.95496
Spine1  6.24237 2.26527 5.52901
RightShoulder  0.150721 6.90793 7.02902
RightArm  -28.7355 -5.23874 67.0942
RightForeArm  31.3709 15.3289 2.7644
RightHand  0.310767 -5.4845 -6.10394
LeftShoulder1  0.0315545 0.317908 -7.61464
LeftArm  -1.57735 0.668343 -80.9716
LeftForeArm  29.9301 -30.5673 -5.97008
LeftHand  0.0355773 1.16277 3.11635
HEad  -3.29403 20.4969 -1.48299
RightUpLeg  -11.9817 -14.031 4.51531
RightLeg  10.3983 -0.548054 -0.0631563
RightFoot  -0.754885 -0.00462156 0.0201412
RightToes  -18.5959 -0.0737705 -0.165438
332
root  33.4083 34.1367 15.5562 -171.705 3.23216 -178.553
LeftUpLeg  -19.3925 6.79713 7.96465
LeftLeg  9.39565 -2.71972 -0.273108
LeftFoot  12.4046 0.0660391 -0.607676
LeftToes  -27.054 2.48695e-006 -1.03773e-007
Spine  3.12032 1.00392 3.01082
Spine1  6.04559 2.09716 5.67421
RightShoulder  0.155996 7.23692 7.24333
RightArm  -31.283 -7.62711 66.8632
RightForeArm  32.9387 13.6296 2.44422
RightHand  0.34181 -5.69818 -6.48256
LeftShoulder1  0.0306327 0.17281 -7.61072
LeftArm  -2.47272 1.55857 -80.4926
LeftForeArm  30.5346 -26.8813 -5.1189
LeftHand  0.0445572 1.6558 2.7014
HEad  -3.71834 21.4728 -1.71223
RightUpLeg  -11.6399 -13.4603 4.20909
RightLeg  10.5235 -0.0773188 -0.00793639
RightFoot  -0.946188 -0.00453908 0.00944339
RightToes  -19.6488 -0.0795097 -0.173993
333
root  33.2277 34.1546 15.2461 -171.807 4.5797 -178.709
LeftUpLeg  -18.7147 6.4401 7.77281
LeftLeg  10.0001 -0.638747 -0.0718789
LeftFoot  11.8642 0.0167765 -0.161467
LeftToes  -27.2344 2.48695e-006 -1.03773e-007
Spine  2.9919 0.941265 2.89865
Spine1  5.80133 1.92344 5.51675
RightShoulder  0.157784 7.60465 7.42288
RightArm  -34.7844 -10.1662 66.7874
RightForeArm  34.9457 11.8868 2.12034
RightHand  0.374496 -5.83994 -6.95422
LeftShoulder1  0.0295552 -0.134049 -7.71074
LeftArm  -3.73955 2.70178 -79.5313
LeftForeArm  31.4977 -22.4878 -4.17602
LeftHand  0.0513634 2.1754 2.32741
HEad  -3.86612 22.445 -1.82958
RightUpLeg  -10.959 -11.9514 3.46591
RightLeg  10.3177 -0.386026 -0.0435314
RightFoot  -0.920607 -0.00503955 0.00863035
RightToes  -20.6744 -0.0852498 -0.182222
334
root  33.0359 34.1868 14.918 -171.971 6.18822 -178.959
LeftUpLeg  -17.7454 6.97518 7.31547
LeftLeg  10.2393 0.262757 0.0290214
LeftFoot  11.1371 -0.00107664 0.0110339
LeftToes  -26.9571 2.48695e-006 -1.03773e-007
Spine  2.83392 0.856704 2.69328
Spine1  5.49117 1.68108 5.21113
RightShoulder  0.150068 7.91367 7.58164
RightArm  -37.4397 -12.7292 66.6597
RightForeArm  36.0408 10.4159 1.8508
RightHand  0.422363 -6.06839 -7.57723
LeftShoulder1  0.0283895 -0.0923192 -7.86993
LeftArm  -5.75186 4.05334 -78.4441
LeftForeArm  33.2711 -18.1297 -3.29978
LeftHand  0.0546835 2.7344 1.91606
HEad  -3.75359 23.4998 -2.0128
RightUpLeg  -10.232 -9.77606 2.56823
RightLeg  10.1087 -1.06827 -0.118873
RightFoot  -0.856408 -0.00585485 0.0136106
RightToes  -21.4218 -0.0895258 -0.188155
335
root  32.8224 34.214 14.5888 -172.129 7.9474 -179.31
LeftUpLeg  -16.7207 7.78182 6.66437
LeftLeg  10.3007 1.00732 0.115691
LeftFoot  10.2623 -0.0122377 0.136276
LeftToes  -26.1414 2.48695e-006 -1.03773e-007
Spine  2.65551 0.777117 2.41353
Spine1  5.14319 1.46832 4.75672
RightShoulder  0.132249 7.99765 7.40523
RightArm  -39.7342 -15.1632 66.8566
RightForeArm  36.7875 9.36715 1.66028
RightHand  0.461665 -6.33205 -7.95341
LeftShoulder1  0.0272027 0.0646374 -8.01153
LeftArm  -8.67131 5.88497 -77.1682
LeftForeArm  35.2304 -14.765 -2.65378
LeftHand  0.063828 3.43327 1.756
HEad  -3.5542 24.4839 -2.40895
RightUpLeg  -9.84023 -8.62582 1.58983
RightLeg  10.4332 -0.57494 -0.0666775
RightFoot  -1.09357 -0.0060069 0.00926908
RightToes  -22.0067 -0.0929254 -0.192758
336
root  32.6127 34.2369 14.2771 -172.154 9.54831 -179.685
LeftUpLeg  -15.7848 8.6558 5.93879
LeftLeg  10.0471 1.60139 0.177459
LeftFoot  9.53746 -0.0185546 0.223875
LeftToes  -25.3915 2.48695e-006 -1.03773e-007
Spine  2.47034 0.696403 2.12674
Spine1  4.78794 1.27716 4.26469
RightShoulder  0.111795 7.89062 7.06166
RightArm  -41.2737 -17.4436 67.1586
RightForeArm  36.8841 8.87871 1.57222
RightHand  0.471887 -6.40177 -8.04461
LeftShoulder1  0.0260622 0.0125765 -8.25408
LeftArm  -12.1412 8.21253 -75.5933
LeftForeArm  36.6561 -13.0403 -2.33055
LeftHand  0.0909208 3.95178 2.26103
HEad  -3.4644 24.9774 -2.85013
RightUpLeg  -9.63126 -7.90493 0.636898
RightLeg  10.7017 0.204515 0.0264922
RightFoot  -1.30047 -0.00559839 -0.00272878
RightToes  -22.627 -0.0965838 -0.197601
337
root  32.4173 34.255 13.9931 -172.171 10.8879 179.933
LeftUpLeg  -14.9825 9.46576 5.18406
LeftLeg  9.75123 2.1013 0.222255
LeftFoot  8.93885 -0.0223589 0.290108
LeftToes  -24.7675 2.48695e-006 -1.03773e-007
Spine  2.3264 0.611991 1.82858
Spine1  4.51878 1.10015 3.72223
RightShoulder  0.0941634 7.64256 6.9063
RightArm  -41.5595 -19.471 67.2735
RightForeArm  36.3365 8.9843 1.59174
RightHand  0.456784 -6.44356 -7.72351
LeftShoulder1  0.0250352 0.00427881 -8.56808
LeftArm  -15.2262 10.3822 -73.9002
LeftForeArm  37.2534 -11.7399 -2.09039
LeftHand  0.128176 4.19915 3.12006
HEad  -3.35792 24.4619 -3.11426
RightUpLeg  -9.38541 -7.15372 -0.279174
RightLeg  10.7254 0.707532 0.0887045
RightFoot  -1.38299 -0.0054218 -0.010007
RightToes  -23.2755 -0.100461 -0.202623
338
root  32.2379 34.2709 13.7344 -172.125 12.0179 179.68
LeftUpLeg  -14.5235 10.2427 4.55801
LeftLeg  9.85751 2.44161 0.262978
LeftFoot  8.26391 -0.0232026 0.321171
LeftToes  -24.2381 2.48695e-006 -1.03773e-007
Spine  2.20535 0.553275 1.57802
Spine1  4.29972 0.989892 3.24927
RightShoulder  0.081241 7.43761 6.85712
RightArm  -41.3461 -21.1847 67.2252
RightForeArm  35.9594 9.32952 1.65428
RightHand  0.428041 -6.29021 -7.40035
LeftShoulder1  0.0241891 0.078522 -8.85453
LeftArm  -17.5014 12.2826 -72.3061
LeftForeArm  37.319 -10.889 -1.93486
LeftHand  0.159184 4.34326 3.81994
HEad  -3.13755 22.4156 -2.96561
RightUpLeg  -9.0911 -6.2854 -1.02976
RightLeg  10.4585 0.914592 0.10998
RightFoot  -1.27716 -0.00573854 -0.00843544
RightToes  -23.9798 -0.104737 -0.208025
339
root  32.0746 34.2845 13.5065 -172.139 13.1847 179.528
LeftUpLeg  -14.2275 10.8793 4.0892
LeftLeg  10.3701 2.96066 0.345831
LeftFoot  7.4054 -0.0232281 0.358923
LeftToes  -23.2129 2.48695e-006 -1.03773e-007
Spine  2.12762 0.580747 1.3244
Spine1  4.16843 1.06106 2.75555
RightShoulder  0.0718012 7.24133 6.8628
RightArm  -41.02 -22.3714 67.2401
RightForeArm  35.9724 9.57316 1.69824
RightHand  0.41727 -6.10426 -7.43567
LeftShoulder1  0.023591 0.199682 -8.93325
LeftArm  -19.2084 13.8452 -70.9554
LeftForeArm  37.4386 -10.3949 -1.84492
LeftHand  0.170406 4.42568 4.03159
HEad  -2.87569 19.1814 -2.4919
RightUpLeg  -8.84275 -5.69177 -1.64128
RightLeg  10.2867 1.43197 0.167103
RightFoot  -1.14527 -0.00560902 -0.0125318
RightToes  -24.6669 -0.108282 -0.213245
340
root  31.9232 34.2937 13.3087 -172.256 14.4093 179.417
LeftUpLeg  -13.8209 11.0528 3.7541
LeftLeg  10.8059 3.91775 0.488018
LeftFoot  6.69412 -0.025089 0.441704
LeftToes  -22.5731 2.48695e-006 -1.03773e-007
Spine  2.10915 0.664049 1.05759
Spine1  4.15094 1.24879 2.23009
RightShoulder  0.0645178 7.1405 6.83436
RightArm  -41.0794 -22.9234 67.4217
RightForeArm  36.1899 9.56383 1.69635
RightHand  0.419677 -6.10007 -7.48595
LeftShoulder1  0.0233082 0.209486 -8.94843
LeftArm  -20.582 15.1159 -69.7519
LeftForeArm  37.6456 -10.1905 -1.80763
LeftHand  0.174398 4.3408 4.07399
HEad  -2.7454 15.53 -1.95313
RightUpLeg  -8.65233 -5.19906 -2.19594
RightLeg  10.3281 2.1209 0.248393
RightFoot  -1.11585 -0.00512808 -0.0207519
RightToes  -25.0977 -0.111661 -0.216492
